<svg xmlns="http://www.w3.org/2000/svg" viewBox="0 0 24 24" id="brand-dot-ai"><path fill="#212121" d="M.025 12.749a11.908 11.908 0 0 0 1.723 5.494c1 1.649 2.384 3.032 4.024 4.036A12.084 12.084 0 0 0 11.902 24h.18c6.343-.043 11.497-4.994 11.889-11.248.014-.24.03-.496.03-.736s0-.495-.016-.735l-.027-.022-.001.002C23.578 5.002 18.403.039 12.061 0h-.142c-2.24.016-4.336.64-6.125 1.725a12.045 12.045 0 0 0-4.047 4.036 11.972 11.972 0 0 0-1.722 6.988zm1.723-2.168a10.348 10.348 0 0 1 8.769-8.826l.115.01c.8.043 1.465.43 1.37 2.766v3.831c-.01 1.574.895 3.074 1.857 3.643-.962.56-1.868 1.876-1.858 3.637v3.838c.096 2.342-.57 2.732-1.37 2.768-.034 0-.066.003-.1.004a10.35 10.35 0 0 1-8.783-8.829 10.093 10.093 0 0 1 0-2.842z"></path></svg>